<svg width="800" height="800" viewBox="0 0 800 800" fill="none" xmlns="http://www.w3.org/2000/svg">
<path d="M101.306 143.13C100.483 136.956 102.637 130.78 107.711 127.167C130.907 110.651 210.473 66.667 400 66.667C589.527 66.667 669.093 110.651 692.29 127.167C697.363 130.78 699.517 136.956 698.693 143.13L642.053 567.927C636.56 609.147 612.147 645.44 576.043 666.07L565.38 672.164C462.903 730.724 337.097 730.724 234.62 672.164L223.958 666.07C187.853 645.44 163.442 609.147 157.946 567.927L101.306 143.13Z" stroke="#B1D2A2" stroke-width="50"/>
<path d="M100 166.667C185.714 255.556 614.287 255.554 700 166.667" stroke="#B1D2A2" stroke-width="50"/>
</svg>
