<svg width="629" height="606" viewBox="0 0 629 606" fill="none" xmlns="http://www.w3.org/2000/svg">
<path d="M185.667 330.889L214.333 348.111C219 348.111 221.444 346.111 221.444 342.222C221.102 338.541 219.965 334.977 218.111 331.778L155.889 215L18.2222 218.333C16.9402 218.225 15.6502 218.404 14.4458 218.856C13.2414 219.309 12.1529 220.024 11.2592 220.95C10.3656 221.875 9.68922 222.988 9.27922 224.208C8.86922 225.427 8.73589 226.723 8.88889 228C8.88889 229.444 10.8889 231.333 14.7778 233.889L43.3333 251.111L12.5556 298.111C5.49714 307.917 1.16477 319.419 0 331.444C0.416066 340.906 3.28802 350.096 8.33333 358.111L102 521.444C99.8565 511.812 98.7392 501.979 98.6667 492.111C98.9232 474.553 104.375 457.463 114.333 443L185.778 330.889H185.667Z" fill="#B1D2A2"/>
<path d="M221.778 235.889L299 115.889C270.111 50.1115 239.444 17.2227 207 17.2227C187.444 17.2227 174.333 22.6671 167.556 33.556L94.4444 150.334L221.778 235.889Z" fill="#B1D2A2"/>
<path d="M158.778 559.778H307.778V404.778H164.222C152.129 421.193 140.999 438.296 130.889 456.001C123.781 469.472 119.973 484.437 119.778 499.667C119.778 539.741 132.667 559.778 158.444 559.778H158.778Z" fill="#B1D2A2"/>
<path d="M465.778 207L532.444 95.8889C534.601 92.1745 535.75 87.9615 535.778 83.6667C535.778 78.6667 534.111 76.1111 530.778 76.1111C528.638 77.2517 526.36 78.1107 524 78.6667L493.444 91.4444L465.778 36.8889C453.704 12.2963 429.148 0 392.111 0H219.222C234.472 3.75993 248.948 10.1521 262 18.8889C279.704 32.8889 297.778 59.1852 316.222 97.7778L350.667 170L325.444 182.222C324.186 182.816 323.145 183.789 322.468 185.005C321.79 186.22 321.51 187.617 321.667 189C321.667 193.111 324.333 195.556 329.667 196.111L466.222 207.222L465.778 207Z" fill="#B1D2A2"/>
<path d="M532.111 536.667L628.667 361.111C616.37 376.017 600.29 387.339 582.111 393.889C563.38 399.049 543.973 401.334 524.555 400.667H417V378.445C417 369.778 414.889 365.445 410.667 365.445C409.357 365.342 408.045 365.598 406.87 366.185C405.695 366.772 404.703 367.669 404 368.778L336.555 486.667L407.111 595.111C412.444 603.222 417 606.222 420.889 604.667C424.778 603.111 426.778 601.556 426.778 598.445V561.445H486.444C495.72 562.229 505.024 560.306 513.228 555.908C521.433 551.51 528.185 544.826 532.667 536.667H532.111Z" fill="#B1D2A2"/>
<path d="M490.111 378.333H554.333C572.162 377.366 589.096 370.215 602.222 358.111C619.926 344.111 628.741 329.296 628.667 313.667C628.491 305.969 626.014 298.5 621.555 292.222L545.111 175.556L413.667 252L490.111 378.333Z" fill="#B1D2A2"/>
</svg>
